<?xml version="1.0" standalone="no"?><!DOCTYPE svg PUBLIC "-//W3C//DTD SVG 1.1//EN" "http://www.w3.org/Graphics/SVG/1.1/DTD/svg11.dtd"><svg t="1649073393345" class="icon" viewBox="0 0 1024 1024" version="1.1" xmlns="http://www.w3.org/2000/svg" p-id="3680" xmlns:xlink="http://www.w3.org/1999/xlink" width="200" height="200"><defs><style type="text/css">@font-face { font-family: feedback-iconfont; src: url("//at.alicdn.com/t/font_1031158_u69w8yhxdu.woff2?t=1630033759944") format("woff2"), url("//at.alicdn.com/t/font_1031158_u69w8yhxdu.woff?t=1630033759944") format("woff"), url("//at.alicdn.com/t/font_1031158_u69w8yhxdu.ttf?t=1630033759944") format("truetype"); }
</style></defs><path d="M512 0l443.402449 256v512L512 1024 68.597551 768v-512z" fill="#FFFEFE" p-id="3681"></path><path d="M512 0l443.402449 256v512L512 1024 68.597551 768v-512L512 0z m0 12.068571L79.036082 262.029061v499.931429L512 1011.92098l432.953469-249.96049V262.029061L512 12.068571z" fill="#2F54EB" p-id="3682"></path><path d="M513.462857 45.212735V94.040816L150.047347 303.020408v417.959184l-42.579592 31.346939V278.642939z" fill="#B5CBF9" p-id="3683"></path><path d="M512 94.040816l361.963102 208.979592v417.959184L512 929.959184 150.036898 720.979592V303.020408L512 94.040816z m0 12.068572L160.475429 309.049469v405.890613L512 917.880163l351.514122-202.940081V309.049469L512 106.109388z" fill="#C6D6FF" p-id="3684"></path><path d="M303.020408 696.549878h417.959184v-55.693062H303.020408v55.693062zM303.020408 334.367347v278.622041h417.959184V334.367347H303.020408z m155.052408 240.807184l-74.741551-73.090613-24.617796-24.450612 99.359347-97.530775 24.899919 24.450612-74.699755 73.090612 74.699755 73.090612-24.899919 24.440164z m95.712653-111.469715v27.867429h-83.612734v-27.867429h83.602285z m86.831021 38.379102l-74.731102 73.090613-24.899919-24.450613 74.689307-73.080163-74.689307-73.101061 24.899919-24.440163 99.317551 97.541224-24.576 24.440163z" fill="#2F54EB" p-id="3685"></path></svg>