<svg
  t="1650896484422"
  class="icon"
  viewBox="0 0 1024 1024"
  version="1.1"
  xmlns="http://www.w3.org/2000/svg"
  p-id="26113"
  width="1em"
  height="1em"
>
  <path
    d="M170.666667 85.333333h640a85.333333 85.333333 0 0 1 85.333333 85.333334v640a85.333333 85.333333 0 0 1-85.333333 85.333333H170.666667a85.333333 85.333333 0 0 1-85.333334-85.333333V170.666667a85.333333 85.333333 0 0 1 85.333334-85.333334z m0 42.666667a42.666667 42.666667 0 0 0-42.666667 42.666667v640a42.666667 42.666667 0 0 0 42.666667 42.666666h640a42.666667 42.666667 0 0 0 42.666666-42.666666V170.666667a42.666667 42.666667 0 0 0-42.666666-42.666667H170.666667z m209.706666 404.181333c0 12.245333-2.005333 22.528-5.973333 30.848a54.485333 54.485333 0 0 1-16 20.053334 63.274667 63.274667 0 0 1-22.613333 10.922666 102.4 102.4 0 0 1-26.026667 3.328H235.946667V373.418667h73.813333c7.125333 0 14.464 0.896 21.973333 2.688 7.466667 1.792 14.293333 4.864 20.394667 9.173333 6.101333 4.309333 11.093333 10.154667 14.933333 17.536 3.84 7.381333 5.717333 16.768 5.717334 28.16 0 12.458667-2.773333 22.741333-8.362667 30.848-5.546667 8.106667-12.885333 13.952-21.973333 17.536v0.64a44.928 44.928 0 0 1 26.837333 16.768c3.413333 4.437333 6.101333 9.6 8.106667 15.488 2.005333 5.888 2.986667 12.544 2.986666 19.925333z m-50.773333-93.909333c0-7.594667-2.389333-13.141333-7.168-16.64-4.821333-3.456-11.946667-5.205333-21.333333-5.205333h-21.973334v46.165333h24.064c8.362667 0 14.890667-2.048 19.498667-6.144 4.608-4.138667 6.954667-10.197333 6.954667-18.176z m6.058667 88.832c0-9.258667-2.901333-15.701333-8.661334-19.285333-5.76-3.584-13.44-5.376-23.04-5.376h-24.832v51.242666h25.130667c3.456 0 7.082667-0.384 10.837333-1.109333a30.165333 30.165333 0 0 0 10.24-3.968 21.461333 21.461333 0 0 0 7.424-8.064 27.690667 27.690667 0 0 0 2.901334-13.44z m162.304-107.52V597.333333h-44.757334V419.584H400.896V373.418667h149.418667v46.165333H497.92zM697.216 597.333333l-74.624-146.432h-0.768L622.848 597.333333H579.413333V373.418667h51.029334l74.325333 146.133333h0.768l-1.024-146.133333h43.434667V597.333333h-50.773334z"
    p-id="26114"
    fill="currentColor"
  ></path>
</svg>
