<svg
  t="1650949371368"
  class="icon"
  viewBox="0 0 1024 1024"
  version="1.1"
  xmlns="http://www.w3.org/2000/svg"
  p-id="28020"
  width="1em"
  height="1em"
>
  <path
    d="M853.333333 827.733333H170.666667c-66.030933 0-102.4-36.369067-102.4-102.4v-426.666666c0-66.030933 36.369067-102.4 102.4-102.4h682.666666c66.030933 0 102.4 36.369067 102.4 102.4v426.666666c0 66.030933-36.369067 102.4-102.4 102.4z m-750.933333-341.333333v238.933333c0 47.223467 21.0432 68.266667 68.266667 68.266667h682.666666c47.223467 0 68.266667-21.0432 68.266667-68.266667v-238.933333H102.4z m0-34.133333h819.2v-136.533334H102.4v136.533334z m1.0752-170.666667h817.066667c-4.829867-35.242667-26.112-51.2-67.208534-51.2H170.666667c-41.079467 0-62.3616 15.957333-67.191467 51.2z m409.378133 460.8h-170.666666a17.066667 17.066667 0 1 1 0-34.133333h170.666666a17.066667 17.066667 0 1 1 0 34.133333z m-256 0H170.666667a17.066667 17.066667 0 1 1 0-34.133333h86.186666a17.066667 17.066667 0 1 1 0 34.133333z"
    p-id="28021"
    fill="currentColor"
  ></path>
</svg>
