<svg
  t="1650901651213"
  class="icon"
  viewBox="0 0 1024 1024"
  version="1.1"
  xmlns="http://www.w3.org/2000/svg"
  p-id="26911"
  width="1em"
  height="1em"
>
  <path
    fill="currentColor"
    d="M819.438021 825.26268l-615.014188 0c-6.753821 0-12.279674 5.525853-12.279674 12.279674l0 1.547239c0 6.753821 5.525853 12.279674 12.279674 12.279674l615.014188 0c6.753821 0 12.279674-5.525853 12.279674-12.279674l0-1.547239C831.717695 830.788533 826.191842 825.26268 819.438021 825.26268zM819.438021 649.614218l-615.014188 0c-6.753821 0-12.279674 5.525853-12.279674 12.279674l0 1.547239c0 6.753821 5.525853 12.279674 12.279674 12.279674l615.014188 0c6.753821 0 12.279674-5.525853 12.279674-12.279674l0-1.547239C831.717695 655.140071 826.191842 649.614218 819.438021 649.614218zM498.778884 92.111884l-322.183863 0c-62.562894 0-85.86153 23.422456-85.86153 85.86153l0 669.481707c0 65.574484 21.252023 85.86153 85.86153 85.86153l669.482731 0c69.544913 0 85.86153-20.969591 85.86153-85.86153L931.939281 524.024871c0-7.369851 5.974062-13.343913 13.343913-13.343913l0 0c7.369851 0 13.343913 5.974062 13.343913 13.343913l0 350.119099c0 47.223534-38.637995 85.86153-85.86153 85.86153l-722.859405 0c-47.224558 0-85.86153-38.637995-85.86153-85.86153L64.044642 151.284565c0-47.224558 38.637995-85.86153 85.86153-85.86153l348.871689 0c7.369851 0 13.343913 5.974062 13.343913 13.343913l0 0C512.122797 86.136799 506.148735 92.111884 498.778884 92.111884zM472.798163 580.788689c-9.897418 0-19.338441-3.927449-26.37981-11.076266-7.953136-8.074909-11.745509-19.153222-10.402931-30.394241l41.026392-351.561961c1.680269-14.298658 11.180644-26.082028 24.795732-30.762631 13.612019-4.678556 28.345582-1.223874 38.454824 9.014304l85.470627 86.446861 179.020256-176.361707c14.459317-14.32117 37.981033-14.217816 52.410674 0.257873l90.713025 91.753727c6.966669 7.03523 10.773368 16.361643 10.720156 26.264177-0.054235 9.93221-3.981684 19.250436-11.056823 26.241664l-178.98751 176.334077 82.721003 83.698261c10.089799 10.240225 13.341866 24.994254 8.501628 38.518269-4.847401 13.541411-16.750499 22.89443-31.063483 24.406876l-352.045985 37.018102C475.391221 580.721151 474.089575 580.787666 472.798163 580.788689zM514.046612 180.552146c-1.777483 0-3.203972 0.399089-3.89368 0.635473-1.608637 0.553609-6.92062 2.87549-7.702426 9.543354l-41.029462 351.58652c-0.419556 3.510964 0.756223 6.940063 3.222391 9.444093 2.473331 2.511193 5.887081 3.736091 9.390881 3.381004l352.023472-37.016055c6.697539-0.707105 9.087982-5.986341 9.660011-7.586792 0.571005-1.594311 2.068102-7.16519-2.623757-11.927657l-85.255733-86.263689c-4.128017-4.177136-6.380314-9.712199-6.340405-15.584953 0.038886-5.872754 2.364861-11.378142 6.548136-15.498996l181.558056-178.865737c2.197038-2.171456 3.423983-5.076622 3.440355-8.169053 0.017396-3.062755-1.160429-5.947456-3.314489-8.123005l-0.007163-0.008186-90.683349-91.724051c-4.465708-4.479011-11.784394-4.5312-16.277732-0.080841L641.142266 273.215592c-8.614192 8.485255-22.534226 8.392134-31.032784-0.206708l-88.015589-89.019453C519.397481 181.257204 516.411473 180.552146 514.046612 180.552146z"
    p-id="26912"
  ></path>
</svg>
