<svg
  t="1650894693515"
  class="icon"
  viewBox="0 0 1080 1024"
  version="1.1"
  xmlns="http://www.w3.org/2000/svg"
  p-id="13684"
  width="1em"
  height="1em"
>
  <path
    d="M323.368421 538.947368a107.789474 107.789474 0 0 1 107.789474 107.789474v215.578947a107.789474 107.789474 0 0 1-107.789474 107.789474H107.789474a107.789474 107.789474 0 0 1-107.789474-107.789474v-215.578947a107.789474 107.789474 0 0 1 107.789474-107.789474h215.578947z m592.842105 269.473685a53.894737 53.894737 0 0 1 0 107.789473h-323.368421a53.894737 53.894737 0 0 1 0-107.789473h323.368421zM323.368421 646.736842H107.789474v215.578947h215.578947v-215.578947z m592.842105-53.894737a53.894737 53.894737 0 0 1 0 107.789474h-323.368421a53.894737 53.894737 0 0 1 0-107.789474h323.368421zM862.315789 0a107.789474 107.789474 0 0 1 107.789474 107.789474v215.578947a107.789474 107.789474 0 0 1-107.789474 107.789474H107.789474a107.789474 107.789474 0 0 1-107.789474-107.789474V107.789474a107.789474 107.789474 0 0 1 107.789474-107.789474h754.526315z m0 107.789474H107.789474v215.578947h754.526315V107.789474z"
    fill="currentColor"
    p-id="13685"
  ></path>
</svg>
