<svg
  t="1650895953281"
  class="icon"
  viewBox="0 0 1024 1024"
  version="1.1"
  xmlns="http://www.w3.org/2000/svg"
  p-id="19166"
  width="1em"
  height="1em"
>
  <path
    d="M888.42779 134.656863 134.496715 134.656863c-38.974663 0-70.680782 31.705096-70.680782 70.681806l0 471.206922c0 38.97671 31.706119 70.680782 70.680782 70.680782l353.405959 0 0 94.243431L322.980507 841.469803c-13.023618 0-23.558555 10.584056-23.558555 23.560602 0 12.974499 10.535961 23.557532 23.558555 23.557532l376.965537 0c12.976546 0 23.561625-10.584056 23.561625-23.557532 0-12.977569-10.586103-23.560602-23.561625-23.560602L535.025924 841.469803l0-94.243431L888.42779 747.226373c38.97671 0 70.681806-31.704073 70.681806-70.680782L959.109596 205.338668C959.110619 166.361959 927.4045 134.656863 888.42779 134.656863zM911.990438 676.54559c0 12.977569-10.587126 23.560602-23.561625 23.560602L134.496715 700.106192c-13.021571 0-23.559579-10.584056-23.559579-23.560602L110.937137 205.338668c0-13.000082 10.538007-23.560602 23.559579-23.560602L888.42779 181.778066c12.975523 0 23.561625 10.561543 23.561625 23.560602L911.989415 676.54559z"
    fill="currentColor"
    p-id="19167"
  ></path>
</svg>
