<svg
  t="1650817912054"
  class="icon"
  viewBox="0 0 1024 1024"
  version="1.1"
  xmlns="http://www.w3.org/2000/svg"
  p-id="6462"
  data-spm-anchor-id="a313x.7781069.0.i2"
  width="1em"
  height="1em"
>
  <path
    d="M859.946667 710.912v-162.986667a41.728 41.728 0 0 0-41.002667-42.197333h-294.656v-155.306667a131.328 131.328 0 1 0-43.776 0v155.306667H200.448a41.728 41.728 0 0 0-41.002667 42.154667v163.029333a131.328 131.328 0 1 0 43.776 2.474667v-163.84H816.213333v163.84a131.328 131.328 0 1 0 43.776-2.474667zM414.848 221.141333a87.552 87.552 0 1 1 175.104 0 87.552 87.552 0 0 1-175.104 0zM261.546667 841.386667a87.552 87.552 0 1 1-175.104 0 87.552 87.552 0 0 1 175.104 0z m583.765333 87.552a87.552 87.552 0 1 1 0-175.104 87.552 87.552 0 0 1 0 175.104z"
    p-id="6463"
    fill="currentColor"
  ></path>
</svg>
