<svg
  t="1650817814594"
  class="icon"
  viewBox="0 0 1024 1024"
  version="1.1"
  xmlns="http://www.w3.org/2000/svg"
  p-id="3479"
  width="1em"
  height="1em"
>
  <path
    d="M73.617261 633.231387a24.319042 24.319042 0 0 1-24.38304-24.319043V304.476331c0-90.236447 73.341112-158.329766 170.553285-158.329766H901.744654a24.319042 24.319042 0 0 1 0 48.702083H219.787506c-70.589221 0-121.787205 46.078186-121.787205 109.627683v304.372016a24.319042 24.319042 0 0 1-24.38304 24.38304zM804.212494 876.805796H98.000301a24.319042 24.319042 0 1 1 0-48.76608h706.212193c63.805488 0 121.787205-63.74149 121.787205-133.946726V414.104015a24.319042 24.319042 0 1 1 48.702082 0v280.052973c0 97.340167-79.612865 182.648808-170.489287 182.648808z"
    fill="currentColor"
    p-id="3480"
  ></path>
  <path
    d="M804.212494 340.954895a24.319042 24.319042 0 0 1-17.215322-41.598362l120.251265-120.251265a11.967529 11.967529 0 0 0 3.583859-8.63966 12.159521 12.159521 0 0 0-3.583859-8.703657L786.997172 41.510686c-9.471627-9.471627-9.471627-24.959017 0-34.430645s24.959017-9.471627 34.430644 0l120.251265 120.251265c11.583544 11.519546 17.791299 26.814944 17.7913 43.134302a60.349624 60.349624 0 0 1-17.7913 43.070304l-120.251265 120.251265a23.551073 23.551073 0 0 1-17.215322 7.167718zM219.787506 1022.97604a24.12705 24.12705 0 0 1-17.27932-7.231715l-120.251265-120.251265a60.925601 60.925601 0 0 1 0-86.204606l120.251265-120.251265a24.447037 24.447037 0 0 1 34.494642 34.558639l-120.187268 120.187268a12.159521 12.159521 0 0 0 0 17.343317l120.187268 120.251265a24.191047 24.191047 0 0 1 0 34.366647 24.319042 24.319042 0 0 1-17.215322 7.231715z"
    fill="currentColor"
    p-id="3481"
  ></path>
</svg>
